<svg width="278" height="88" viewBox="0 0 278 88" fill="none" xmlns="http://www.w3.org/2000/svg">
<path d="M215.374 64.6364V77.6364H238.282L265.595 47.697L270 53.2121V41H256.784L262.07 44.9394L241.366 67H223.744V54M215.374 64.6364V53.2121H201.718L175.286 80H170L207.445 41H223.744V54M215.374 64.6364L223.744 54" stroke="#D73232" stroke-width="3"/>
<path d="M21.4 33H14.92V12.84H7.36V7.8H28.96V12.84H21.4V33ZM36.7113 18.06C35.7513 18.06 35.2713 18.54 35.2713 19.5V21.48H41.3913V19.5C41.3913 18.54 40.9113 18.06 39.9513 18.06H36.7113ZM46.9713 32.64C42.3393 33.12 38.1393 33.36 34.3713 33.36C32.7393 33.36 31.4313 32.868 30.4473 31.884C29.4633 30.9 28.9713 29.592 28.9713 27.96V19.32C28.9713 17.52 29.4753 16.116 30.4833 15.108C31.5153 14.076 32.9313 13.56 34.7313 13.56H41.9313C43.7313 13.56 45.1353 14.076 46.1433 15.108C47.1753 16.116 47.6913 17.52 47.6913 19.32V25.98H35.2713V27.42C35.2713 27.78 35.3913 28.08 35.6313 28.32C35.8713 28.56 36.1713 28.68 36.5312 28.68C38.9073 28.68 42.3873 28.5 46.9713 28.14V32.64ZM67.8372 32.64C63.3492 33.12 59.3892 33.36 55.9572 33.36C54.3252 33.36 53.0172 32.868 52.0332 31.884C51.0492 30.9 50.5572 29.592 50.5572 27.96V19.68C50.5572 17.88 51.0612 16.476 52.0692 15.468C53.1012 14.436 54.5172 13.92 56.3172 13.92H67.8372V18.78H58.2972C57.3372 18.78 56.8572 19.26 56.8572 20.22V27.24C56.8572 27.6 56.9772 27.9 57.2172 28.14C57.4572 28.38 57.7572 28.5 58.1172 28.5C60.2772 28.5 63.5172 28.32 67.8372 27.96V32.64ZM81.3302 18.78C80.0582 18.78 78.6182 19.02 77.0102 19.5V33H70.7102V13.92H76.2902L76.6502 15.72C77.7782 14.976 78.9302 14.436 80.1062 14.1C81.3062 13.74 82.3142 13.56 83.1302 13.56H84.7502C86.3822 13.56 87.6902 14.052 88.6742 15.036C89.6582 16.02 90.1502 17.328 90.1502 18.96V33H83.8502V20.04C83.8502 19.68 83.7302 19.38 83.4902 19.14C83.2502 18.9 82.9502 18.78 82.5902 18.78H81.3302ZM112.826 27.6C112.826 29.4 112.31 30.816 111.278 31.848C110.27 32.856 108.866 33.36 107.066 33.36H98.7859C96.9859 33.36 95.5699 32.856 94.5379 31.848C93.5299 30.816 93.0259 29.4 93.0259 27.6V19.32C93.0259 17.52 93.5299 16.116 94.5379 15.108C95.5699 14.076 96.9859 13.56 98.7859 13.56H107.066C108.866 13.56 110.27 14.076 111.278 15.108C112.31 16.116 112.826 17.52 112.826 19.32V27.6ZM106.526 19.86C106.526 18.9 106.046 18.42 105.086 18.42H100.766C99.8059 18.42 99.3259 18.9 99.3259 19.86V27.06C99.3259 28.02 99.8059 28.5 100.766 28.5H105.086C106.046 28.5 106.526 28.02 106.526 27.06V19.86ZM128.842 19.68C128.842 19.32 128.722 19.02 128.482 18.78C128.242 18.54 127.942 18.42 127.582 18.42H126.682C125.674 18.42 124.798 18.468 124.054 18.564C123.334 18.66 122.77 18.732 122.362 18.78V28.14H127.402C128.362 28.14 128.842 27.66 128.842 26.7V19.68ZM122.362 14.28C124.69 13.8 126.73 13.56 128.482 13.56H129.742C131.374 13.56 132.682 14.052 133.666 15.036C134.65 16.02 135.142 17.328 135.142 18.96V27.24C135.142 29.04 134.626 30.456 133.594 31.488C132.586 32.496 131.182 33 129.382 33H116.062V7.8H122.362V14.28ZM145.946 28.32C147.218 28.32 148.658 28.08 150.266 27.6V25.44H145.046C144.686 25.44 144.386 25.56 144.146 25.8C143.906 26.04 143.786 26.34 143.786 26.7V27.06C143.786 27.42 143.906 27.72 144.146 27.96C144.386 28.2 144.686 28.32 145.046 28.32H145.946ZM139.286 14.28C143.678 13.8 147.638 13.56 151.166 13.56C152.798 13.56 154.106 14.052 155.09 15.036C156.074 16.02 156.566 17.328 156.566 18.96V33H150.986L150.626 31.2C149.498 31.944 148.334 32.496 147.134 32.856C145.958 33.192 144.962 33.36 144.146 33.36H142.886C141.254 33.36 139.946 32.868 138.962 31.884C137.978 30.9 137.486 29.592 137.486 27.96V26.34C137.486 24.708 137.978 23.4 138.962 22.416C139.946 21.432 141.254 20.94 142.886 20.94H150.266V19.5C150.266 19.14 150.146 18.84 149.906 18.6C149.666 18.36 149.366 18.24 149.006 18.24C147.446 18.24 145.718 18.312 143.822 18.456C141.95 18.6 140.438 18.708 139.286 18.78V14.28ZM173.116 33C170.788 33.24 168.508 33.36 166.276 33.36C164.644 33.36 163.336 32.868 162.352 31.884C161.368 30.9 160.876 29.592 160.876 27.96V18.78H158.716V13.92H160.876L161.596 9.6H167.176V13.92H171.676V18.78H167.176V27.06C167.176 27.42 167.296 27.72 167.536 27.96C167.776 28.2 168.076 28.32 168.436 28.32H173.116V33ZM188.268 33C185.94 33.24 183.66 33.36 181.428 33.36C179.796 33.36 178.488 32.868 177.504 31.884C176.52 30.9 176.028 29.592 176.028 27.96V18.78H173.868V13.92H176.028L176.748 9.6H182.328V13.92H186.828V18.78H182.328V27.06C182.328 27.42 182.448 27.72 182.688 27.96C182.928 28.2 183.228 28.32 183.588 28.32H188.268V33ZM197.832 18.06C196.872 18.06 196.392 18.54 196.392 19.5V21.48H202.512V19.5C202.512 18.54 202.032 18.06 201.072 18.06H197.832ZM208.092 32.64C203.46 33.12 199.26 33.36 195.492 33.36C193.86 33.36 192.552 32.868 191.568 31.884C190.584 30.9 190.092 29.592 190.092 27.96V19.32C190.092 17.52 190.596 16.116 191.604 15.108C192.636 14.076 194.052 13.56 195.852 13.56H203.052C204.852 13.56 206.256 14.076 207.264 15.108C208.296 16.116 208.812 17.52 208.812 19.32V25.98H196.392V27.42C196.392 27.78 196.512 28.08 196.752 28.32C196.992 28.56 197.292 28.68 197.652 28.68C200.028 28.68 203.508 28.5 208.092 28.14V32.64ZM223.018 19.14C221.506 19.14 219.946 19.5 218.338 20.22V33H212.038V13.92H217.618L217.978 16.26C220.042 14.46 222.202 13.56 224.458 13.56H226.078V19.14H223.018ZM233.637 39.48C232.365 39.48 230.805 39.36 228.957 39.12V34.44H232.197C233.109 34.44 233.697 34.188 233.961 33.684C234.249 33.18 234.201 32.472 233.817 31.56L226.437 13.92H233.097L237.597 26.16L241.377 13.92H248.037L240.837 33.72C240.141 35.616 239.241 37.044 238.137 38.004C237.033 38.988 235.533 39.48 233.637 39.48Z" fill="#E2DBDB"/>
</svg>
